<svg xmlns="http://www.w3.org/2000/svg" width="512" height="512" viewBox="0 0 512 512">
  <defs>
    <linearGradient id="bg" x1="0%" y1="0%" x2="100%" y2="100%">
      <stop offset="0%" style="stop-color:#2563eb"/>
      <stop offset="100%" style="stop-color:#1d4ed8"/>
    </linearGradient>
  </defs>
  <!-- Background -->
  <rect width="512" height="512" rx="96" fill="url(#bg)"/>
  <!-- PDF Document -->
  <path d="M160 80h120l72 72v280c0 17.67-14.33 32-32 32H160c-17.67 0-32-14.33-32-32V112c0-17.67 14.33-32 32-32z" fill="white"/>
  <path d="M280 80l72 72h-40c-17.67 0-32-14.33-32-32V80z" fill="#e5e7eb"/>
  <!-- Lock Icon (Unlocked) -->
  <g transform="translate(256, 300)">
    <rect x="-48" y="0" width="96" height="80" rx="12" fill="#2563eb"/>
    <!-- Shackle (open) -->
    <path d="M-28 0v-24c0-22.09 17.91-40 40-40h8" stroke="#2563eb" stroke-width="16" fill="none" stroke-linecap="round"/>
    <!-- Keyhole -->
    <circle cx="0" cy="32" r="12" fill="white"/>
    <rect x="-4" y="32" width="8" height="24" rx="4" fill="white"/>
  </g>
</svg>
